<mxfile host="app.diagrams.net" agent="Mozilla/5.0 (Windows NT 10.0; Win64; x64) AppleWebKit/537.36 (KHTML, like Gecko) Chrome/132.0.0.0 Safari/537.36 OPR/117.0.0.0" version="26.2.13">
  <diagram name="Page-1" id="nO_ffA2eNJJKiUuH-3_u">
    <mxGraphModel dx="1267" dy="1795" grid="1" gridSize="10" guides="1" tooltips="1" connect="1" arrows="1" fold="1" page="1" pageScale="1" pageWidth="850" pageHeight="1100" math="0" shadow="0">
      <root>
        <mxCell id="0" />
        <mxCell id="1" parent="0" />
        <mxCell id="TQ6K2UgWpYvKrHzmTgoq-1" value="User&lt;div&gt;&lt;br&gt;&lt;/div&gt;" style="shape=umlActor;verticalLabelPosition=bottom;verticalAlign=top;html=1;" vertex="1" parent="1">
          <mxGeometry x="64.69" y="170" width="50" height="150" as="geometry" />
        </mxCell>
        <mxCell id="TQ6K2UgWpYvKrHzmTgoq-2" value="" style="rounded=0;whiteSpace=wrap;html=1;rotation=90;" vertex="1" parent="1">
          <mxGeometry x="114.69" y="105.93" width="400.29" height="169.38" as="geometry" />
        </mxCell>
        <mxCell id="TQ6K2UgWpYvKrHzmTgoq-3" value="Start the Simulation" style="ellipse;whiteSpace=wrap;html=1;" vertex="1" parent="1">
          <mxGeometry x="249.83999999999997" y="160" width="130" height="50" as="geometry" />
        </mxCell>
        <mxCell id="TQ6K2UgWpYvKrHzmTgoq-4" value="View Simulation" style="ellipse;whiteSpace=wrap;html=1;" vertex="1" parent="1">
          <mxGeometry x="249.83999999999997" y="230" width="130" height="50" as="geometry" />
        </mxCell>
        <mxCell id="TQ6K2UgWpYvKrHzmTgoq-10" value="Setup the Simulation&lt;div&gt;parameters&lt;/div&gt;" style="ellipse;whiteSpace=wrap;html=1;" vertex="1" parent="1">
          <mxGeometry x="249.83999999999997" y="90" width="130" height="50" as="geometry" />
        </mxCell>
        <mxCell id="TQ6K2UgWpYvKrHzmTgoq-13" value="" style="endArrow=none;html=1;rounded=0;entryX=0;entryY=0.5;entryDx=0;entryDy=0;exitX=1;exitY=0.3333333333333333;exitDx=0;exitDy=0;exitPerimeter=0;" edge="1" parent="1" source="TQ6K2UgWpYvKrHzmTgoq-1" target="TQ6K2UgWpYvKrHzmTgoq-10">
          <mxGeometry width="50" height="50" relative="1" as="geometry">
            <mxPoint x="504.2" y="470" as="sourcePoint" />
            <mxPoint x="554.2" y="420" as="targetPoint" />
          </mxGeometry>
        </mxCell>
        <mxCell id="TQ6K2UgWpYvKrHzmTgoq-14" value="" style="endArrow=none;html=1;rounded=0;entryX=0;entryY=0.5;entryDx=0;entryDy=0;exitX=1;exitY=0.3333333333333333;exitDx=0;exitDy=0;exitPerimeter=0;" edge="1" parent="1" target="TQ6K2UgWpYvKrHzmTgoq-3" source="TQ6K2UgWpYvKrHzmTgoq-1">
          <mxGeometry width="50" height="50" relative="1" as="geometry">
            <mxPoint x="114.2" y="410" as="sourcePoint" />
            <mxPoint x="250.2" y="165" as="targetPoint" />
          </mxGeometry>
        </mxCell>
        <mxCell id="TQ6K2UgWpYvKrHzmTgoq-15" value="" style="endArrow=none;html=1;rounded=0;entryX=0;entryY=0.5;entryDx=0;entryDy=0;exitX=1;exitY=0.3333333333333333;exitDx=0;exitDy=0;exitPerimeter=0;" edge="1" parent="1" target="TQ6K2UgWpYvKrHzmTgoq-4" source="TQ6K2UgWpYvKrHzmTgoq-1">
          <mxGeometry width="50" height="50" relative="1" as="geometry">
            <mxPoint x="114.2" y="410" as="sourcePoint" />
            <mxPoint x="260.2" y="175" as="targetPoint" />
          </mxGeometry>
        </mxCell>
        <mxCell id="TQ6K2UgWpYvKrHzmTgoq-23" value="Simulation Application" style="text;html=1;align=center;verticalAlign=middle;whiteSpace=wrap;rounded=0;" vertex="1" parent="1">
          <mxGeometry x="204.83999999999997" y="-50" width="220" height="40" as="geometry" />
        </mxCell>
        <mxCell id="TQ6K2UgWpYvKrHzmTgoq-28" value="View Statistics" style="ellipse;whiteSpace=wrap;html=1;" vertex="1" parent="1">
          <mxGeometry x="249.83999999999997" y="300" width="130" height="50" as="geometry" />
        </mxCell>
        <mxCell id="TQ6K2UgWpYvKrHzmTgoq-29" value="" style="endArrow=none;html=1;rounded=0;exitX=1;exitY=0.3333333333333333;exitDx=0;exitDy=0;exitPerimeter=0;entryX=0;entryY=0.5;entryDx=0;entryDy=0;" edge="1" parent="1" source="TQ6K2UgWpYvKrHzmTgoq-1" target="TQ6K2UgWpYvKrHzmTgoq-28">
          <mxGeometry width="50" height="50" relative="1" as="geometry">
            <mxPoint x="125" y="230" as="sourcePoint" />
            <mxPoint x="220" y="310" as="targetPoint" />
          </mxGeometry>
        </mxCell>
      </root>
    </mxGraphModel>
  </diagram>
</mxfile>
